HIERARCHY
ROOT Hips
{
  OFFSET 5.84602e-005 68.8428 3.50346
  CHANNELS 6 Xposition Yposition Zposition Zrotation Xrotation Yrotation
  JOINT Spine
  {
    OFFSET 0 8.597 -4.6522
    CHANNELS 3 Zrotation Xrotation Yrotation
    JOINT Spine1
    {
      OFFSET 0 7.8454 0.4098
      CHANNELS 3 Zrotation Xrotation Yrotation
      JOINT Spine2
      {
        OFFSET 0 9.7078 -2.1609
        CHANNELS 3 Zrotation Xrotation Yrotation
        JOINT Neck
        {
          OFFSET 0 21.8761 -0.4549
          CHANNELS 3 Zrotation Xrotation Yrotation
          JOINT Head
          {
            OFFSET 0 12.3537 3.3602
            CHANNELS 3 Zrotation Xrotation Yrotation
            End Site
            {
              OFFSET 0.0001 18.9506 0.5657
            }
          }
        }
        JOINT LeftShoulder
        {
          OFFSET 2.2086 21.1115 7.2329
          CHANNELS 3 Zrotation Xrotation Yrotation
          JOINT LeftArm
          {
            OFFSET 13.1193 3.0282 -4.8998
            CHANNELS 3 Zrotation Xrotation Yrotation
            JOINT LeftForeArm
            {
              OFFSET 27.4081 -0.0973053 -0.2375
              CHANNELS 3 Zrotation Xrotation Yrotation
              JOINT LeftHand
              {
                OFFSET 22.8641 0.0662994 -0.1369
                CHANNELS 3 Zrotation Xrotation Yrotation
                JOINT LeftHandIndex1
                {
                  OFFSET 8.8614 0.775009 2.4612
                  CHANNELS 3 Zrotation Xrotation Yrotation
                  JOINT LeftHandIndex2
                  {
                    OFFSET 3.3146 -0.808304 0.5841
                    CHANNELS 3 Zrotation Xrotation Yrotation
                    JOINT LeftHandIndex3
                    {
                      OFFSET 2.2628 -0.552002 0.3989
                      CHANNELS 3 Zrotation Xrotation Yrotation
                      End Site
                      {
                        OFFSET 1.6102 -0.4807 0.2612
                      }
                    }
                  }
                }
                JOINT LeftHandMiddle1
                {
                  OFFSET 8.9937 0.895004 0.2143
                  CHANNELS 3 Zrotation Xrotation Yrotation
                  JOINT LeftHandMiddle2
                  {
                    OFFSET 4.0984 0.0113983 -0.0242
                    CHANNELS 3 Zrotation Xrotation Yrotation
                    JOINT LeftHandMiddle3
                    {
                      OFFSET 2.2716 0.00689697 -0.0138001
                      CHANNELS 3 Zrotation Xrotation Yrotation
                      End Site
                      {
                        OFFSET 2.0404 -0.1441 0.0027
                      }
                    }
                  }
                }
                JOINT LeftHandRing1
                {
                  OFFSET 8.5234 0.597198 -2.0164
                  CHANNELS 3 Zrotation Xrotation Yrotation
                  JOINT LeftHandRing2
                  {
                    OFFSET 3.7188 -0.188293 -0.2328
                    CHANNELS 3 Zrotation Xrotation Yrotation
                    JOINT LeftHandRing3
                    {
                      OFFSET 2.1191 -0.106598 -0.1332
                      CHANNELS 3 Zrotation Xrotation Yrotation
                      End Site
                      {
                        OFFSET 1.8737 -0.2304 -0.0886
                      }
                    }
                  }
                }
                JOINT LeftHandPinky1
                {
                  OFFSET 7.9094 -0.601089 -3.4825
                  CHANNELS 3 Zrotation Xrotation Yrotation
                  JOINT LeftHandPinky2
                  {
                    OFFSET 2.2874 -0.477005 -0.6314
                    CHANNELS 3 Zrotation Xrotation Yrotation
                    JOINT LeftHandPinky3
                    {
                      OFFSET 1.6774 -0.349396 -0.4633
                      CHANNELS 3 Zrotation Xrotation Yrotation
                      End Site
                      {
                        OFFSET 1.4888 -0.4091 -0.3416
                      }
                    }
                  }
                }
                JOINT LeftHandThumb1
                {
                  OFFSET 1.833 -1.3875 1.3896
                  CHANNELS 3 Zrotation Xrotation Yrotation
                  JOINT LeftHandThumb2
                  {
                    OFFSET 3.4129 -1.121 2.5732
                    CHANNELS 3 Zrotation Xrotation Yrotation
                    JOINT LeftHandThumb3
                    {
                      OFFSET 2.2474 -0.804199 1.6192
                      CHANNELS 3 Zrotation Xrotation Yrotation
                      End Site
                      {
                        OFFSET 1.6527 -0.5689 1.1317
                      }
                    }
                  }
                }
              }
            }
          }
        }
        JOINT RightShoulder
        {
          OFFSET -2.2086 21.1115 7.2329
          CHANNELS 3 Zrotation Xrotation Yrotation
          JOINT RightArm
          {
            OFFSET -13.1216 3.0287 -4.9007
            CHANNELS 3 Zrotation Xrotation Yrotation
            JOINT RightForeArm
            {
              OFFSET -27.4081 -0.0973053 -0.2375
              CHANNELS 3 Zrotation Xrotation Yrotation
              JOINT RightHand
              {
                OFFSET -22.8641 0.0664063 -0.1369
                CHANNELS 3 Zrotation Xrotation Yrotation
                JOINT RightHandIndex1
                {
                  OFFSET -8.8614 0.774994 2.4612
                  CHANNELS 3 Zrotation Xrotation Yrotation
                  JOINT RightHandIndex2
                  {
                    OFFSET -3.3146 -0.808304 0.5841
                    CHANNELS 3 Zrotation Xrotation Yrotation
                    JOINT RightHandIndex3
                    {
                      OFFSET -2.2628 -0.552002 0.3989
                      CHANNELS 3 Zrotation Xrotation Yrotation
                      End Site
                      {
                        OFFSET -1.6102 -0.4807 0.2612
                      }
                    }
                  }
                }
                JOINT RightHandMiddle1
                {
                  OFFSET -8.9937 0.894989 0.2143
                  CHANNELS 3 Zrotation Xrotation Yrotation
                  JOINT RightHandMiddle2
                  {
                    OFFSET -4.0984 0.0113983 -0.0242
                    CHANNELS 3 Zrotation Xrotation Yrotation
                    JOINT RightHandMiddle3
                    {
                      OFFSET -2.2716 0.00691223 -0.0138001
                      CHANNELS 3 Zrotation Xrotation Yrotation
                      End Site
                      {
                        OFFSET -2.0404 -0.1441 0.0027
                      }
                    }
                  }
                }
                JOINT RightHandRing1
                {
                  OFFSET -8.5234 0.597198 -2.0164
                  CHANNELS 3 Zrotation Xrotation Yrotation
                  JOINT RightHandRing2
                  {
                    OFFSET -3.7188 -0.188309 -0.2328
                    CHANNELS 3 Zrotation Xrotation Yrotation
                    JOINT RightHandRing3
                    {
                      OFFSET -2.1191 -0.106598 -0.1332
                      CHANNELS 3 Zrotation Xrotation Yrotation
                      End Site
                      {
                        OFFSET -1.8737 -0.2304 -0.0886
                      }
                    }
                  }
                }
                JOINT RightHandPinky1
                {
                  OFFSET -7.9094 -0.601105 -3.4825
                  CHANNELS 3 Zrotation Xrotation Yrotation
                  JOINT RightHandPinky2
                  {
                    OFFSET -2.2874 -0.477005 -0.6314
                    CHANNELS 3 Zrotation Xrotation Yrotation
                    JOINT RightHandPinky3
                    {
                      OFFSET -1.6774 -0.349396 -0.4633
                      CHANNELS 3 Zrotation Xrotation Yrotation
                      End Site
                      {
                        OFFSET -1.4888 -0.4091 -0.3416
                      }
                    }
                  }
                }
                JOINT RightHandThumb1
                {
                  OFFSET -1.833 -1.38751 1.3896
                  CHANNELS 3 Zrotation Xrotation Yrotation
                  JOINT RightHandThumb2
                  {
                    OFFSET -3.41299 -1.12099 2.5732
                    CHANNELS 3 Zrotation Xrotation Yrotation
                    JOINT RightHandThumb3
                    {
                      OFFSET -2.24741 -0.804108 1.6192
                      CHANNELS 3 Zrotation Xrotation Yrotation
                      End Site
                      {
                        OFFSET -1.6527 -0.5689 1.1317
                      }
                    }
                  }
                }
              }
            }
          }
        }
      }
    }
  }
  JOINT RightUpLeg
  {
    OFFSET -9.1966 3.8861 -0.7581
    CHANNELS 3 Zrotation Xrotation Yrotation
    JOINT RightLeg
    {
      OFFSET -0.7359 -41.0265 0
      CHANNELS 3 Zrotation Xrotation Yrotation
      JOINT RightFoot
      {
        OFFSET 0 -40.2855 0
        CHANNELS 3 Zrotation Xrotation Yrotation
        JOINT RightToeBase
        {
          OFFSET 0 -5.6122 11.7359
          CHANNELS 3 Zrotation Xrotation Yrotation
          End Site
          {
            OFFSET 0 0 7.8731
          }
        }
      }
    }
  }
  JOINT LeftUpLeg
  {
    OFFSET 9.1965 3.8864 -0.7581
    CHANNELS 3 Zrotation Xrotation Yrotation
    JOINT LeftLeg
    {
      OFFSET 0.7359 -41.0268 0
      CHANNELS 3 Zrotation Xrotation Yrotation
      JOINT LeftFoot
      {
        OFFSET 0 -40.2855 0
        CHANNELS 3 Zrotation Xrotation Yrotation
        JOINT LeftToeBase
        {
          OFFSET 0 -5.6122 11.7359
          CHANNELS 3 Zrotation Xrotation Yrotation
          End Site
          {
            OFFSET 0 0 7.8731
          }
        }
      }
    }
  }
}
MOTION
Frames:	6
Frame Time:	0.0333333
5.84602e-005 68.8428 3.50346 0 0 -0 0 0 -0 0 0 -0 0 0 -0 0 0 -0 0 0 -0 0 0 -0 0 0 -0 0 0 -0 0 0 -0 0 0 -0 0 0 -0 0 0 -0 0 0 -0 -0.0146107 -8.87603e-005 -2.63497e-007 2.99804e-018 -2.42657e-020 -1.42182e-022 0 0 -0 -0.0187562 -0.001176 5.858e-005 5.06224e-018 3.88251e-019 1.21329e-020 0 0 -0 -0.012269 -0.00324817 0.000675346 -1.74678e-018 3.88251e-019 -0 0 0 -0 0 0 -0 0 0 -0 0 0 -0 0 0 -0 0 0 -0 0 0 -0 0 0 -0 0 0 -0 0 0 -0 0 0 -0 0.0149955 -9.10982e-005 2.64101e-007 -9.69331e-018 1.21329e-020 -4.7394e-023 0 0 -0 0.0189956 -0.00119102 -5.96516e-005 -5.41541e-019 0 2.42657e-020 0 0 -0 0.0122698 -0.00324857 -0.000673756 -2.00796e-019 0 -1.94126e-019 0 0 -0 0 0 -0 0 0 -0 3.39842 1.33031 -0.0637918 -5.65207e-008 0.834868 -0.000436188 -3.39935 -2.16518 -0.0642563 -8.89002e-024 -1.18485e-023 -1.48106e-024 -3.39844 1.35642 0.0640283 -3.18788e-007 0.782166 -0.000588827 3.39931 -2.13858 0.0634662 1.1399e-023 0 -0 
-0.249919 38.845 51.2427 132.698 -66.6673 -0.476482 -0.227787 3.36261 -0.148368 -0.448 6.72568 -0.284035 -0.447999 6.72568 -0.284032 0.000106678 5.24006 -5.23929e-005 -1.56356e-006 -17.9658 3.63212e-006 14.8413 -20.603 0.483282 -39.4387 4.53037 -42.2581 -69.8481 -63.0227 -123.447 -28.5747 -0.336524 -9.00508 3.08116e-015 -5.96354e-016 -0 6.36111e-015 2.78299e-015 -0 5.56597e-015 -2.18663e-015 -3.18055e-015 3.08116e-015 -5.96354e-016 -0 -0.0145857 -9.04388e-005 4.04599e-006 -1.2921e-015 3.18055e-015 -6.36111e-015 3.08116e-015 -5.96354e-016 -0 -0.0187471 -0.00117595 5.888e-005 -2.48612e-006 -1.19912e-006 -1.11767e-007 3.08116e-015 -5.96354e-016 -0 -0.0122346 -0.00323844 0.000672323 -2.98177e-015 2.54444e-014 6.36111e-015 3.08116e-015 -5.96354e-016 -0 6.36111e-015 2.78299e-015 -0 5.56597e-015 -2.18663e-015 -3.18055e-015 -14.6929 -20.4236 -0.871673 39.447 4.52448 42.177 69.8083 -63.0334 123.538 28.5471 -0.544583 9.07636 -3.97569e-015 2.3059e-014 3.18055e-015 -9.31615e-007 1.97826e-007 -2.44833e-007 9.31615e-007 -1.97826e-007 2.44833e-007 -3.97569e-015 2.3059e-014 3.18055e-015 0.0150183 -9.25758e-005 4.67328e-007 9.29707e-007 -1.97782e-007 2.44858e-007 -3.97569e-015 2.3059e-014 3.18055e-015 0.0190035 -0.00119235 -5.90267e-005 9.29203e-007 -1.97633e-007 2.44864e-007 -3.97569e-015 2.3059e-014 3.18055e-015 0.0122543 -0.00324323 -0.000676261 3.97569e-016 -1.59028e-015 6.36111e-015 -3.97569e-015 2.3059e-014 3.18055e-015 -9.31615e-007 1.97826e-007 -2.44833e-007 9.31615e-007 -1.97826e-007 2.44833e-007 -47.0862 -49.8706 -35.4641 26.4849 63.9815 -31.4215 -9.33099 27.9702 0.638278 4.80292e-006 -8.82421e-007 3.37334e-006 40.3802 -48.0341 29.2497 -26.3655 63.8427 31.9906 9.22207 27.1409 -1.75025 -1.45294e-006 5.83012e-007 -4.25138e-006 
0.819404 19.2751 70.1517 15.3856 -83.3257 -177.645 -0.322993 4.87558 -0.216257 -0.630825 9.75182 -0.407047 -0.630829 9.75186 -0.407049 1.18075e-005 7.31601 -6.57576e-006 -1.59096e-006 -25.1301 1.4387e-006 21.6501 -29.8731 0.756466 -55.3714 4.27728 -61.3291 -82.7177 -22.3958 -144.749 -41.4676 -0.481278 -13.0576 -3.18055e-015 5.1684e-015 -1.59028e-015 -1.22023e-006 1.10936e-006 1.1998e-007 0 5.56597e-015 -0 -3.18055e-015 5.1684e-015 -1.59028e-015 -0.0146138 -8.92683e-005 3.82253e-007 -3.18055e-015 -2.38542e-015 -0 -3.18055e-015 5.1684e-015 -1.59028e-015 -0.0187458 -0.00117299 5.88692e-005 -3.18055e-015 -5.56597e-015 -1.59028e-015 -3.18055e-015 5.1684e-015 -1.59028e-015 -0.0122925 -0.00325066 0.000670602 -3.97252e-031 4.77083e-015 4.77083e-015 -3.18055e-015 5.1684e-015 -1.59028e-015 -1.22023e-006 1.10936e-006 1.1998e-007 0 5.56597e-015 -0 -21.5369 -29.6103 -1.36241 55.3876 4.28201 61.212 82.5709 -22.3737 144.81 41.4492 -0.778654 13.1614 -2.47463e-006 9.55465e-007 -7.1212e-007 -2.65175e-006 -1.76961e-006 -6.42076e-007 -5.11832e-006 -2.41531e-006 -1.99152e-006 -2.47463e-006 9.55465e-007 -7.1212e-007 0.0149979 -9.9117e-005 -4.9513e-006 -3.79632e-006 -7.30102e-007 -1.35172e-006 -2.47463e-006 9.55465e-007 -7.1212e-007 0.0190081 -0.00119924 -6.43159e-005 -3.79629e-006 -7.30163e-007 -1.35166e-006 -2.47463e-006 9.55465e-007 -7.1212e-007 0.0122895 -0.00325709 -0.00067656 -3.79638e-006 -7.30126e-007 -1.35164e-006 -2.47463e-006 9.55465e-007 -7.1212e-007 -2.65175e-006 -1.76961e-006 -6.42076e-007 -5.11832e-006 -2.41531e-006 -1.99152e-006 -100.619 -57.4524 -74.8664 113.385 70.522 -115.901 -11.5772 39.8694 0.766407 4.05977e-006 2.0907e-006 1.56685e-006 89.4483 -60.7906 66.5684 -112.656 70.5851 115.555 11.8836 40.2605 -0.600222 -1.02039e-006 6.19667e-008 4.05318e-006 
-0.0164314 23.4817 66.08 89.3125 -89.7452 -90.4204 -0.302198 4.53901 -0.201098 -0.591154 9.07939 -0.379887 -0.591153 9.07938 -0.379887 -9.93552e-006 6.22889 3.78473e-006 -1.51236e-007 -21.4915 -4.55079e-007 20.1284 -27.8132 0.690465 -51.8646 4.50261 -57.1015 -82.5614 -31.6805 -143.984 -38.6007 -0.449659 -12.157 1.19659e-006 1.05864e-006 5.21655e-007 2.39317e-006 2.11728e-006 1.04331e-006 1.59028e-015 1.22253e-014 1.59028e-015 1.19659e-006 1.05864e-006 5.21655e-007 -0.0146049 -8.9427e-005 9.1477e-007 4.77083e-015 1.09332e-015 -1.59028e-015 1.19659e-006 1.05864e-006 5.21655e-007 -0.0187422 -0.0011763 5.9733e-005 3.18055e-015 4.27387e-015 7.95139e-016 1.19659e-006 1.05864e-006 5.21655e-007 -0.0122478 -0.00323946 0.000672964 -1.59028e-015 -6.65929e-015 -3.97569e-016 1.19659e-006 1.05864e-006 5.21655e-007 2.39317e-006 2.11728e-006 1.04331e-006 1.59028e-015 1.22253e-014 1.59028e-015 -20.0006 -27.5692 -1.24404 51.8792 4.50406 56.9922 82.4354 -31.6646 144.047 38.5791 -0.727548 12.2535 -1.78769e-007 8.67283e-008 9.1223e-007 3.58308e-006 1.01639e-007 -5.27365e-006 -1.78769e-007 8.67283e-008 9.1223e-007 -1.78769e-007 8.67283e-008 9.1223e-007 0.0149983 -8.89458e-005 2.40439e-007 -1.59028e-015 2.5842e-015 -1.59028e-015 -1.78769e-007 8.67283e-008 9.1223e-007 0.0189845 -0.00118732 -5.94469e-005 -1.80474e-007 8.69865e-008 9.12223e-007 -1.78769e-007 8.67283e-008 9.1223e-007 0.0122659 -0.00324938 -0.000671232 -1.79851e-007 8.71182e-008 9.12286e-007 -1.78769e-007 8.67283e-008 9.1223e-007 3.58308e-006 1.01639e-007 -5.27365e-006 -1.78769e-007 8.67283e-008 9.1223e-007 -87.1167 -57.5577 -65.0659 93.0853 73.2682 -96.5223 -11.2013 36.9573 0.68694 -3.21715e-006 5.52063e-006 -7.79475e-007 76.148 -59.3661 56.1166 -93.2854 73.2351 96.7413 11.2036 36.9982 -0.64802 4.3921e-006 1.96101e-006 1.06929e-006 
-0.0164314 23.4817 66.08 89.3125 -89.7452 -90.4204 -0.302198 4.53901 -0.201098 -0.591154 9.07939 -0.379887 -0.591153 9.07938 -0.379887 -1.12989e-005 5.71643 4.56965e-006 7.02867e-008 -19.8097 -2.50666e-007 20.1284 -27.8132 0.690465 -51.8646 4.50261 -57.1015 -82.5614 -31.6805 -143.984 -38.6007 -0.449659 -12.157 1.19659e-006 1.05864e-006 5.21655e-007 2.39317e-006 2.11728e-006 1.04331e-006 1.59028e-015 1.22253e-014 1.59028e-015 1.19659e-006 1.05864e-006 5.21655e-007 -0.0146049 -8.9427e-005 9.1477e-007 4.77083e-015 1.09332e-015 -1.59028e-015 1.19659e-006 1.05864e-006 5.21655e-007 -0.0187422 -0.0011763 5.9733e-005 3.18055e-015 4.27387e-015 7.95139e-016 1.19659e-006 1.05864e-006 5.21655e-007 -0.0122478 -0.00323946 0.000672964 -1.59028e-015 -6.65929e-015 -3.97569e-016 1.19659e-006 1.05864e-006 5.21655e-007 2.39317e-006 2.11728e-006 1.04331e-006 1.59028e-015 1.22253e-014 1.59028e-015 -20.0006 -27.5692 -1.24404 51.8792 4.50406 56.9922 82.4354 -31.6646 144.047 38.5791 -0.727548 12.2535 -1.78769e-007 8.67283e-008 9.1223e-007 3.58308e-006 1.01639e-007 -5.27365e-006 -1.78769e-007 8.67283e-008 9.1223e-007 -1.78769e-007 8.67283e-008 9.1223e-007 0.0149983 -8.89458e-005 2.40439e-007 -1.59028e-015 2.5842e-015 -1.59028e-015 -1.78769e-007 8.67283e-008 9.1223e-007 0.0189845 -0.00118732 -5.94469e-005 -1.80474e-007 8.69865e-008 9.12223e-007 -1.78769e-007 8.67283e-008 9.1223e-007 0.0122659 -0.00324938 -0.000671232 -1.79851e-007 8.71182e-008 9.12286e-007 -1.78769e-007 8.67283e-008 9.1223e-007 3.58308e-006 1.01639e-007 -5.27365e-006 -1.78769e-007 8.67283e-008 9.1223e-007 -87.1167 -57.5577 -65.0659 93.0853 73.2682 -96.5223 -11.2013 36.9573 0.68694 -3.21715e-006 5.52063e-006 -7.79475e-007 76.148 -59.3661 56.1166 -93.2854 73.2351 96.7413 11.2036 36.9982 -0.64802 4.3921e-006 1.96101e-006 1.06929e-006 
-0.0164314 23.4817 66.08 89.3125 -89.7452 -90.4204 -0.302198 4.53901 -0.201098 -0.591154 9.07939 -0.379887 -0.591153 9.07938 -0.379887 -1.09637e-005 5.20371 2.97241e-006 -7.59281e-009 -18.1226 1.85355e-007 20.1284 -27.8132 0.690465 -51.8646 4.50261 -57.1015 -82.5614 -31.6805 -143.984 -38.6007 -0.449659 -12.157 1.19659e-006 1.05864e-006 5.21655e-007 2.39317e-006 2.11728e-006 1.04331e-006 1.59028e-015 1.22253e-014 1.59028e-015 1.19659e-006 1.05864e-006 5.21655e-007 -0.0146049 -8.9427e-005 9.1477e-007 4.77083e-015 1.09332e-015 -1.59028e-015 1.19659e-006 1.05864e-006 5.21655e-007 -0.0187422 -0.0011763 5.9733e-005 3.18055e-015 4.27387e-015 7.95139e-016 1.19659e-006 1.05864e-006 5.21655e-007 -0.0122478 -0.00323946 0.000672964 -1.59028e-015 -6.65929e-015 -3.97569e-016 1.19659e-006 1.05864e-006 5.21655e-007 2.39317e-006 2.11728e-006 1.04331e-006 1.59028e-015 1.22253e-014 1.59028e-015 -20.0006 -27.5692 -1.24404 51.8792 4.50406 56.9922 82.4354 -31.6646 144.047 38.5791 -0.727548 12.2535 -1.78769e-007 8.67283e-008 9.1223e-007 3.58308e-006 1.01639e-007 -5.27365e-006 -1.78769e-007 8.67283e-008 9.1223e-007 -1.78769e-007 8.67283e-008 9.1223e-007 0.0149983 -8.89458e-005 2.40439e-007 -1.59028e-015 2.5842e-015 -1.59028e-015 -1.78769e-007 8.67283e-008 9.1223e-007 0.0189845 -0.00118732 -5.94469e-005 -1.80474e-007 8.69865e-008 9.12223e-007 -1.78769e-007 8.67283e-008 9.1223e-007 0.0122659 -0.00324938 -0.000671232 -1.79851e-007 8.71182e-008 9.12286e-007 -1.78769e-007 8.67283e-008 9.1223e-007 3.58308e-006 1.01639e-007 -5.27365e-006 -1.78769e-007 8.67283e-008 9.1223e-007 -87.1167 -57.5577 -65.0659 93.0853 73.2682 -96.5223 -11.2013 36.9573 0.68694 -3.21715e-006 5.52063e-006 -7.79475e-007 76.148 -59.3661 56.1166 -93.2854 73.2351 96.7413 11.2036 36.9982 -0.64802 4.3921e-006 1.96101e-006 1.06929e-006 
